M48
; DRILL file {KiCad 9.0.7} date 2026-10-05T16:26:49+1100
; FORMAT={-:-/ absolute / inch / decimal}
; #@! TF.CreationDate,2026-10-05T16:26:49+11:00
; #@! TF.GenerationSoftware,Kicad,Pcbnew,9.0.7
; #@! TF.FileFunction,Plated,1,2,PTH
FMAT,2
INCH
; #@! TA.AperFunction,Plated,PTH,ViaDrill
T1C0.0118
; #@! TA.AperFunction,Plated,PTH,ComponentDrill
T2C0.0394
%
G90
G05
T1
X0.2165Y-0.2874
X0.2224Y-0.6181
X0.2264Y-0.4016
X0.2264Y-0.5335
X0.2402Y-0.711
X0.2618Y-0.6343
X0.3051Y-0.5492
X0.3228Y-0.4724
X0.3484Y-0.5906
X0.3819Y-0.6732
X0.4547Y-0.4764
X0.5Y-0.3937
X0.5256Y-0.561
X0.5256Y-0.6201
X0.5906Y-0.502
X0.5906Y-0.7067
X0.6555Y-0.561
X0.6555Y-0.6201
X0.6791Y-0.7047
X0.6811Y-0.3937
X0.7264Y-0.3327
X0.7406Y-0.4252
X0.7677Y-0.7146
X0.7992Y-0.378
X0.7992Y-0.5079
X0.8012Y-0.4665
X0.8327Y-0.5906
X0.8346Y-0.378
X0.876Y-0.3228
X0.9094Y-0.4409
X0.9272Y-0.6501
X0.9508Y-0.4409
X0.9547Y-0.5492
X0.9547Y-0.5906
X0.9587Y-0.4075
X0.9744Y-0.7087
X0.9783Y-0.2874
X0.9941Y-0.5039
X1.0138Y-0.5906
X1.0138Y-0.6496
T2
X0.2854Y-0.2559
X0.3642Y-0.2559
X0.4429Y-0.2559
X0.5217Y-0.2559
X0.6004Y-0.2559
X0.6791Y-0.2559
X0.7579Y-0.2559
X0.8366Y-0.2559
X0.9154Y-0.2559
M30
