%TF.GenerationSoftware,KiCad,Pcbnew,9.0.7*%
%TF.CreationDate,2026-10-05T16:26:49+11:00*%
%TF.ProjectId,drawing tablet analog frontend,64726177-696e-4672-9074-61626c657420,rev?*%
%TF.SameCoordinates,Original*%
%TF.FileFunction,Legend,Top*%
%TF.FilePolarity,Positive*%
%FSLAX46Y46*%
G04 Gerber Fmt 4.6, Leading zero omitted, Abs format (unit mm)*
G04 Created by KiCad (PCBNEW 9.0.7) date 2026-10-05 16:26:49*
%MOMM*%
%LPD*%
G01*
G04 APERTURE LIST*
G04 Aperture macros list*
%AMRoundRect*
0 Rectangle with rounded corners*
0 $1 Rounding radius*
0 $2 $3 $4 $5 $6 $7 $8 $9 X,Y pos of 4 corners*
0 Add a 4 corners polygon primitive as box body*
4,1,4,$2,$3,$4,$5,$6,$7,$8,$9,$2,$3,0*
0 Add four circle primitives for the rounded corners*
1,1,$1+$1,$2,$3*
1,1,$1+$1,$4,$5*
1,1,$1+$1,$6,$7*
1,1,$1+$1,$8,$9*
0 Add four rect primitives between the rounded corners*
20,1,$1+$1,$2,$3,$4,$5,0*
20,1,$1+$1,$4,$5,$6,$7,0*
20,1,$1+$1,$6,$7,$8,$9,0*
20,1,$1+$1,$8,$9,$2,$3,0*%
G04 Aperture macros list end*
%ADD10C,0.120000*%
%ADD11RoundRect,0.125000X-0.125000X0.350000X-0.125000X-0.350000X0.125000X-0.350000X0.125000X0.350000X0*%
%ADD12RoundRect,0.135000X0.185000X-0.135000X0.185000X0.135000X-0.185000X0.135000X-0.185000X-0.135000X0*%
%ADD13RoundRect,0.135000X-0.185000X0.135000X-0.185000X-0.135000X0.185000X-0.135000X0.185000X0.135000X0*%
%ADD14RoundRect,0.150000X-0.587500X-0.150000X0.587500X-0.150000X0.587500X0.150000X-0.587500X0.150000X0*%
%ADD15RoundRect,0.140000X0.140000X0.170000X-0.140000X0.170000X-0.140000X-0.170000X0.140000X-0.170000X0*%
%ADD16RoundRect,0.135000X0.135000X0.185000X-0.135000X0.185000X-0.135000X-0.185000X0.135000X-0.185000X0*%
%ADD17RoundRect,0.218750X-0.381250X0.218750X-0.381250X-0.218750X0.381250X-0.218750X0.381250X0.218750X0*%
%ADD18RoundRect,0.140000X0.170000X-0.140000X0.170000X0.140000X-0.170000X0.140000X-0.170000X-0.140000X0*%
%ADD19RoundRect,0.125000X0.125000X-0.350000X0.125000X0.350000X-0.125000X0.350000X-0.125000X-0.350000X0*%
%ADD20RoundRect,0.140000X-0.140000X-0.170000X0.140000X-0.170000X0.140000X0.170000X-0.140000X0.170000X0*%
%ADD21RoundRect,0.100000X-0.637500X-0.100000X0.637500X-0.100000X0.637500X0.100000X-0.637500X0.100000X0*%
%ADD22RoundRect,0.140000X-0.170000X0.140000X-0.170000X-0.140000X0.170000X-0.140000X0.170000X0.140000X0*%
%ADD23RoundRect,0.150000X-0.150000X0.587500X-0.150000X-0.587500X0.150000X-0.587500X0.150000X0.587500X0*%
%ADD24RoundRect,0.200000X0.600000X-0.800000X0.600000X0.800000X-0.600000X0.800000X-0.600000X-0.800000X0*%
%ADD25RoundRect,0.135000X-0.135000X-0.185000X0.135000X-0.185000X0.135000X0.185000X-0.135000X0.185000X0*%
G04 APERTURE END LIST*
D10*
%TO.C,D1*%
X6260000Y-12915000D02*
X6540000Y-12915000D01*
X7560000Y-13000748D02*
X7560000Y-14385000D01*
X7560000Y-14385000D02*
X6910000Y-14385000D01*
X5890000Y-14385000D02*
X5240000Y-14385000D01*
X5240000Y-14385000D02*
X5240000Y-12915000D01*
X7760000Y-12850000D02*
X7570000Y-12710000D01*
X7760000Y-12570000D01*
X7760000Y-12850000D01*
G36*
X7760000Y-12850000D02*
G01*
X7570000Y-12710000D01*
X7760000Y-12570000D01*
X7760000Y-12850000D01*
G37*
%TO.C,R11*%
X10170000Y-16753641D02*
X10170000Y-16446359D01*
X10930000Y-16753641D02*
X10930000Y-16446359D01*
%TO.C,R8*%
X24530000Y-12296359D02*
X24530000Y-12603641D01*
X23770000Y-12296359D02*
X23770000Y-12603641D01*
%TO.C,Q1*%
X18990000Y-9090000D02*
X20510000Y-9090000D01*
X18990000Y-9140000D02*
X18990000Y-9090000D01*
X18990000Y-11040000D02*
X18990000Y-10260000D01*
X18990000Y-12210000D02*
X18990000Y-12160000D01*
X20510000Y-9090000D02*
X20510000Y-10090000D01*
X20510000Y-11210000D02*
X20510000Y-12210000D01*
X20510000Y-12210000D02*
X18990000Y-12210000D01*
X18690000Y-10600000D02*
X18210000Y-10600000D01*
X18450000Y-10270000D01*
X18690000Y-10600000D01*
G36*
X18690000Y-10600000D02*
G01*
X18210000Y-10600000D01*
X18450000Y-10270000D01*
X18690000Y-10600000D01*
G37*
%TO.C,R2*%
X17680000Y-8546359D02*
X17680000Y-8853641D01*
X16920000Y-8546359D02*
X16920000Y-8853641D01*
%TO.C,R1*%
X22630000Y-9946359D02*
X22630000Y-10253641D01*
X21870000Y-9946359D02*
X21870000Y-10253641D01*
%TO.C,C11*%
X9107836Y-14310000D02*
X8892164Y-14310000D01*
X9107836Y-13590000D02*
X8892164Y-13590000D01*
%TO.C,R9*%
X8553641Y-18530000D02*
X8246359Y-18530000D01*
X8553641Y-17770000D02*
X8246359Y-17770000D01*
%TO.C,C17*%
X20007836Y-15360000D02*
X19792164Y-15360000D01*
X20007836Y-14640000D02*
X19792164Y-14640000D01*
%TO.C,C3*%
X21707836Y-12210000D02*
X21492164Y-12210000D01*
X21707836Y-11490000D02*
X21492164Y-11490000D01*
%TO.C,R4*%
X19830000Y-13246359D02*
X19830000Y-13553641D01*
X19070000Y-13246359D02*
X19070000Y-13553641D01*
%TO.C,FB2*%
X16460000Y-10000378D02*
X16460000Y-10799622D01*
X15340000Y-10000378D02*
X15340000Y-10799622D01*
%TO.C,C13*%
X12340000Y-11357836D02*
X12340000Y-11142164D01*
X13060000Y-11357836D02*
X13060000Y-11142164D01*
%TO.C,D2*%
X6540000Y-10835000D02*
X6260000Y-10835000D01*
X5240000Y-10749252D02*
X5240000Y-9365000D01*
X5240000Y-9365000D02*
X5890000Y-9365000D01*
X6910000Y-9365000D02*
X7560000Y-9365000D01*
X7560000Y-9365000D02*
X7560000Y-10835000D01*
X5230000Y-11040000D02*
X5040000Y-11180000D01*
X5040000Y-10900000D01*
X5230000Y-11040000D01*
G36*
X5230000Y-11040000D02*
G01*
X5040000Y-11180000D01*
X5040000Y-10900000D01*
X5230000Y-11040000D01*
G37*
%TO.C,C10*%
X8892164Y-15690000D02*
X9107836Y-15690000D01*
X8892164Y-16410000D02*
X9107836Y-16410000D01*
%TO.C,R5*%
X23153641Y-14330000D02*
X22846359Y-14330000D01*
X23153641Y-13570000D02*
X22846359Y-13570000D01*
%TO.C,R3*%
X22720000Y-12603641D02*
X22720000Y-12296359D01*
X23480000Y-12603641D02*
X23480000Y-12296359D01*
%TO.C,U1*%
X12690000Y-12390000D02*
X17310000Y-12390000D01*
X12690000Y-12590000D02*
X12690000Y-12390000D01*
X12690000Y-17610000D02*
X12690000Y-17410000D01*
X17310000Y-12390000D02*
X17310000Y-12590000D01*
X17310000Y-17410000D02*
X17310000Y-17610000D01*
X17310000Y-17610000D02*
X12690000Y-17610000D01*
X12050000Y-12590000D02*
X11710000Y-12120000D01*
X12390000Y-12120000D01*
X12050000Y-12590000D01*
G36*
X12050000Y-12590000D02*
G01*
X11710000Y-12120000D01*
X12390000Y-12120000D01*
X12050000Y-12590000D01*
G37*
%TO.C,C7*%
X21107836Y-16410000D02*
X20892164Y-16410000D01*
X21107836Y-15690000D02*
X20892164Y-15690000D01*
%TO.C,C1*%
X24710000Y-8992164D02*
X24710000Y-9207836D01*
X23990000Y-8992164D02*
X23990000Y-9207836D01*
%TO.C,C12*%
X10190000Y-13507836D02*
X10190000Y-13292164D01*
X10910000Y-13507836D02*
X10910000Y-13292164D01*
%TO.C,C4*%
X21707836Y-13260000D02*
X21492164Y-13260000D01*
X21707836Y-12540000D02*
X21492164Y-12540000D01*
%TO.C,C2*%
X23660000Y-8992164D02*
X23660000Y-9207836D01*
X22940000Y-8992164D02*
X22940000Y-9207836D01*
%TO.C,R7*%
X19070000Y-16753641D02*
X19070000Y-16446359D01*
X19830000Y-16753641D02*
X19830000Y-16446359D01*
%TO.C,Q2*%
X25260000Y-16690000D02*
X25260000Y-18210000D01*
X25210000Y-16690000D02*
X25260000Y-16690000D01*
X23310000Y-16690000D02*
X24090000Y-16690000D01*
X22140000Y-16690000D02*
X22190000Y-16690000D01*
X25260000Y-18210000D02*
X24260000Y-18210000D01*
X23140000Y-18210000D02*
X22140000Y-18210000D01*
X22140000Y-18210000D02*
X22140000Y-16690000D01*
X24080000Y-16150000D02*
X23750000Y-16390000D01*
X23750000Y-15910000D01*
X24080000Y-16150000D01*
G36*
X24080000Y-16150000D02*
G01*
X23750000Y-16390000D01*
X23750000Y-15910000D01*
X24080000Y-16150000D01*
G37*
%TO.C,C14*%
X10207836Y-15360000D02*
X9992164Y-15360000D01*
X10207836Y-14640000D02*
X9992164Y-14640000D01*
%TO.C,FB1*%
X14660000Y-10000378D02*
X14660000Y-10799622D01*
X13540000Y-10000378D02*
X13540000Y-10799622D01*
%TO.C,C6*%
X21107836Y-17460000D02*
X20892164Y-17460000D01*
X21107836Y-16740000D02*
X20892164Y-16740000D01*
%TO.C,R6*%
X22846359Y-14620000D02*
X23153641Y-14620000D01*
X22846359Y-15380000D02*
X23153641Y-15380000D01*
%TO.C,R13*%
X8846359Y-12520000D02*
X9153641Y-12520000D01*
X8846359Y-13280000D02*
X9153641Y-13280000D01*
%TO.C,C9*%
X8292164Y-16740000D02*
X8507836Y-16740000D01*
X8292164Y-17460000D02*
X8507836Y-17460000D01*
%TO.C,C5*%
X21107836Y-14310000D02*
X20892164Y-14310000D01*
X21107836Y-13590000D02*
X20892164Y-13590000D01*
%TO.C,Q3*%
X12010000Y-9640000D02*
X12010000Y-11160000D01*
X11960000Y-9640000D02*
X12010000Y-9640000D01*
X10060000Y-9640000D02*
X10840000Y-9640000D01*
X8890000Y-9640000D02*
X8940000Y-9640000D01*
X12010000Y-11160000D02*
X11010000Y-11160000D01*
X9890000Y-11160000D02*
X8890000Y-11160000D01*
X8890000Y-11160000D02*
X8890000Y-9640000D01*
X10830000Y-9100000D02*
X10500000Y-9340000D01*
X10500000Y-8860000D01*
X10830000Y-9100000D01*
G36*
X10830000Y-9100000D02*
G01*
X10500000Y-9340000D01*
X10500000Y-8860000D01*
X10830000Y-9100000D01*
G37*
%TO.C,R14*%
X12320000Y-8853641D02*
X12320000Y-8546359D01*
X13080000Y-8853641D02*
X13080000Y-8546359D01*
%TO.C,C15*%
X8560000Y-10642164D02*
X8560000Y-10857836D01*
X7840000Y-10642164D02*
X7840000Y-10857836D01*
%TO.C,R10*%
X7280000Y-17396359D02*
X7280000Y-17703641D01*
X6520000Y-17396359D02*
X6520000Y-17703641D01*
%TO.C,C8*%
X20892164Y-17790000D02*
X21107836Y-17790000D01*
X20892164Y-18510000D02*
X21107836Y-18510000D01*
%TO.C,C16*%
X17660000Y-11142164D02*
X17660000Y-11357836D01*
X16940000Y-11142164D02*
X16940000Y-11357836D01*
%TO.C,R12*%
X7120000Y-15753641D02*
X7120000Y-15446359D01*
X7880000Y-15753641D02*
X7880000Y-15446359D01*
%TO.C,R15*%
X8580000Y-8596359D02*
X8580000Y-8903641D01*
X7820000Y-8596359D02*
X7820000Y-8903641D01*
%TD*%
%LPC*%
D11*
%TO.C,D1*%
X7050000Y-12600000D03*
X5750000Y-12600000D03*
X6400000Y-14700000D03*
%TD*%
D12*
%TO.C,R11*%
X10550000Y-17110000D03*
X10550000Y-16090000D03*
%TD*%
D13*
%TO.C,R8*%
X24150000Y-11940000D03*
X24150000Y-12960000D03*
%TD*%
D14*
%TO.C,Q1*%
X18812500Y-9700000D03*
X18812500Y-11600000D03*
X20687500Y-10650000D03*
%TD*%
D13*
%TO.C,R2*%
X17300000Y-8190000D03*
X17300000Y-9210000D03*
%TD*%
%TO.C,R1*%
X22250000Y-9590000D03*
X22250000Y-10610000D03*
%TD*%
D15*
%TO.C,C11*%
X9480000Y-13950000D03*
X8520000Y-13950000D03*
%TD*%
D16*
%TO.C,R9*%
X8910000Y-18150000D03*
X7890000Y-18150000D03*
%TD*%
D15*
%TO.C,C17*%
X20380000Y-15000000D03*
X19420000Y-15000000D03*
%TD*%
%TO.C,C3*%
X22080000Y-11850000D03*
X21120000Y-11850000D03*
%TD*%
D13*
%TO.C,R4*%
X19450000Y-12890000D03*
X19450000Y-13910000D03*
%TD*%
D17*
%TO.C,FB2*%
X15900000Y-9337500D03*
X15900000Y-11462500D03*
%TD*%
D18*
%TO.C,C13*%
X12700000Y-11730000D03*
X12700000Y-10770000D03*
%TD*%
D19*
%TO.C,D2*%
X5750000Y-11150000D03*
X7050000Y-11150000D03*
X6400000Y-9050000D03*
%TD*%
D20*
%TO.C,C10*%
X8520000Y-16050000D03*
X9480000Y-16050000D03*
%TD*%
D16*
%TO.C,R5*%
X23510000Y-13950000D03*
X22490000Y-13950000D03*
%TD*%
D12*
%TO.C,R3*%
X23100000Y-12960000D03*
X23100000Y-11940000D03*
%TD*%
D21*
%TO.C,U1*%
X12137500Y-13050000D03*
X12137500Y-13700000D03*
X12137500Y-14350000D03*
X12137500Y-15000000D03*
X12137500Y-15650000D03*
X12137500Y-16300000D03*
X12137500Y-16950000D03*
X17862500Y-16950000D03*
X17862500Y-16300000D03*
X17862500Y-15650000D03*
X17862500Y-15000000D03*
X17862500Y-14350000D03*
X17862500Y-13700000D03*
X17862500Y-13050000D03*
%TD*%
D15*
%TO.C,C7*%
X21480000Y-16050000D03*
X20520000Y-16050000D03*
%TD*%
D22*
%TO.C,C1*%
X24350000Y-8620000D03*
X24350000Y-9580000D03*
%TD*%
D18*
%TO.C,C12*%
X10550000Y-13880000D03*
X10550000Y-12920000D03*
%TD*%
D15*
%TO.C,C4*%
X22080000Y-12900000D03*
X21120000Y-12900000D03*
%TD*%
D22*
%TO.C,C2*%
X23300000Y-8620000D03*
X23300000Y-9580000D03*
%TD*%
D12*
%TO.C,R7*%
X19450000Y-17110000D03*
X19450000Y-16090000D03*
%TD*%
D23*
%TO.C,Q2*%
X24650000Y-16512500D03*
X22750000Y-16512500D03*
X23700000Y-18387500D03*
%TD*%
D24*
%TO.C,J1*%
X7250000Y-6500000D03*
X9250000Y-6500000D03*
X11250000Y-6500000D03*
X13250000Y-6500000D03*
X15250000Y-6500000D03*
X17250000Y-6500000D03*
X19250000Y-6500000D03*
X21250000Y-6500000D03*
X23250000Y-6500000D03*
%TD*%
D15*
%TO.C,C14*%
X10580000Y-15000000D03*
X9620000Y-15000000D03*
%TD*%
D17*
%TO.C,FB1*%
X14100000Y-9337500D03*
X14100000Y-11462500D03*
%TD*%
D15*
%TO.C,C6*%
X21480000Y-17100000D03*
X20520000Y-17100000D03*
%TD*%
D25*
%TO.C,R6*%
X22490000Y-15000000D03*
X23510000Y-15000000D03*
%TD*%
%TO.C,R13*%
X8490000Y-12900000D03*
X9510000Y-12900000D03*
%TD*%
D20*
%TO.C,C9*%
X7920000Y-17100000D03*
X8880000Y-17100000D03*
%TD*%
D15*
%TO.C,C5*%
X21480000Y-13950000D03*
X20520000Y-13950000D03*
%TD*%
D23*
%TO.C,Q3*%
X11400000Y-9462500D03*
X9500000Y-9462500D03*
X10450000Y-11337500D03*
%TD*%
D12*
%TO.C,R14*%
X12700000Y-9210000D03*
X12700000Y-8190000D03*
%TD*%
D22*
%TO.C,C15*%
X8200000Y-10270000D03*
X8200000Y-11230000D03*
%TD*%
D13*
%TO.C,R10*%
X6900000Y-17040000D03*
X6900000Y-18060000D03*
%TD*%
D20*
%TO.C,C8*%
X20520000Y-18150000D03*
X21480000Y-18150000D03*
%TD*%
D22*
%TO.C,C16*%
X17300000Y-10770000D03*
X17300000Y-11730000D03*
%TD*%
D12*
%TO.C,R12*%
X7500000Y-16110000D03*
X7500000Y-15090000D03*
%TD*%
D13*
%TO.C,R15*%
X8200000Y-8240000D03*
X8200000Y-9260000D03*
%TD*%
%LPD*%
M02*
