%TF.GenerationSoftware,KiCad,Pcbnew,9.0.7*%
%TF.CreationDate,2026-10-05T16:26:49+11:00*%
%TF.ProjectId,drawing tablet analog frontend,64726177-696e-4672-9074-61626c657420,rev?*%
%TF.SameCoordinates,Original*%
%TF.FileFunction,Soldermask,Top*%
%TF.FilePolarity,Negative*%
%FSLAX46Y46*%
G04 Gerber Fmt 4.6, Leading zero omitted, Abs format (unit mm)*
G04 Created by KiCad (PCBNEW 9.0.7) date 2026-10-05 16:26:49*
%MOMM*%
%LPD*%
G01*
G04 APERTURE LIST*
G04 Aperture macros list*
%AMRoundRect*
0 Rectangle with rounded corners*
0 $1 Rounding radius*
0 $2 $3 $4 $5 $6 $7 $8 $9 X,Y pos of 4 corners*
0 Add a 4 corners polygon primitive as box body*
4,1,4,$2,$3,$4,$5,$6,$7,$8,$9,$2,$3,0*
0 Add four circle primitives for the rounded corners*
1,1,$1+$1,$2,$3*
1,1,$1+$1,$4,$5*
1,1,$1+$1,$6,$7*
1,1,$1+$1,$8,$9*
0 Add four rect primitives between the rounded corners*
20,1,$1+$1,$2,$3,$4,$5,0*
20,1,$1+$1,$4,$5,$6,$7,0*
20,1,$1+$1,$6,$7,$8,$9,0*
20,1,$1+$1,$8,$9,$2,$3,0*%
G04 Aperture macros list end*
%ADD10RoundRect,0.125000X-0.125000X0.350000X-0.125000X-0.350000X0.125000X-0.350000X0.125000X0.350000X0*%
%ADD11RoundRect,0.135000X0.185000X-0.135000X0.185000X0.135000X-0.185000X0.135000X-0.185000X-0.135000X0*%
%ADD12RoundRect,0.135000X-0.185000X0.135000X-0.185000X-0.135000X0.185000X-0.135000X0.185000X0.135000X0*%
%ADD13RoundRect,0.150000X-0.587500X-0.150000X0.587500X-0.150000X0.587500X0.150000X-0.587500X0.150000X0*%
%ADD14RoundRect,0.140000X0.140000X0.170000X-0.140000X0.170000X-0.140000X-0.170000X0.140000X-0.170000X0*%
%ADD15RoundRect,0.135000X0.135000X0.185000X-0.135000X0.185000X-0.135000X-0.185000X0.135000X-0.185000X0*%
%ADD16RoundRect,0.218750X-0.381250X0.218750X-0.381250X-0.218750X0.381250X-0.218750X0.381250X0.218750X0*%
%ADD17RoundRect,0.140000X0.170000X-0.140000X0.170000X0.140000X-0.170000X0.140000X-0.170000X-0.140000X0*%
%ADD18RoundRect,0.125000X0.125000X-0.350000X0.125000X0.350000X-0.125000X0.350000X-0.125000X-0.350000X0*%
%ADD19RoundRect,0.140000X-0.140000X-0.170000X0.140000X-0.170000X0.140000X0.170000X-0.140000X0.170000X0*%
%ADD20RoundRect,0.100000X-0.637500X-0.100000X0.637500X-0.100000X0.637500X0.100000X-0.637500X0.100000X0*%
%ADD21RoundRect,0.140000X-0.170000X0.140000X-0.170000X-0.140000X0.170000X-0.140000X0.170000X0.140000X0*%
%ADD22RoundRect,0.150000X-0.150000X0.587500X-0.150000X-0.587500X0.150000X-0.587500X0.150000X0.587500X0*%
%ADD23RoundRect,0.200000X0.600000X-0.800000X0.600000X0.800000X-0.600000X0.800000X-0.600000X-0.800000X0*%
%ADD24RoundRect,0.135000X-0.135000X-0.185000X0.135000X-0.185000X0.135000X0.185000X-0.135000X0.185000X0*%
G04 APERTURE END LIST*
D10*
%TO.C,D1*%
X7050000Y-12600000D03*
X5750000Y-12600000D03*
X6400000Y-14700000D03*
%TD*%
D11*
%TO.C,R11*%
X10550000Y-17110000D03*
X10550000Y-16090000D03*
%TD*%
D12*
%TO.C,R8*%
X24150000Y-11940000D03*
X24150000Y-12960000D03*
%TD*%
D13*
%TO.C,Q1*%
X18812500Y-9700000D03*
X18812500Y-11600000D03*
X20687500Y-10650000D03*
%TD*%
D12*
%TO.C,R2*%
X17300000Y-8190000D03*
X17300000Y-9210000D03*
%TD*%
%TO.C,R1*%
X22250000Y-9590000D03*
X22250000Y-10610000D03*
%TD*%
D14*
%TO.C,C11*%
X9480000Y-13950000D03*
X8520000Y-13950000D03*
%TD*%
D15*
%TO.C,R9*%
X8910000Y-18150000D03*
X7890000Y-18150000D03*
%TD*%
D14*
%TO.C,C17*%
X20380000Y-15000000D03*
X19420000Y-15000000D03*
%TD*%
%TO.C,C3*%
X22080000Y-11850000D03*
X21120000Y-11850000D03*
%TD*%
D12*
%TO.C,R4*%
X19450000Y-12890000D03*
X19450000Y-13910000D03*
%TD*%
D16*
%TO.C,FB2*%
X15900000Y-9337500D03*
X15900000Y-11462500D03*
%TD*%
D17*
%TO.C,C13*%
X12700000Y-11730000D03*
X12700000Y-10770000D03*
%TD*%
D18*
%TO.C,D2*%
X5750000Y-11150000D03*
X7050000Y-11150000D03*
X6400000Y-9050000D03*
%TD*%
D19*
%TO.C,C10*%
X8520000Y-16050000D03*
X9480000Y-16050000D03*
%TD*%
D15*
%TO.C,R5*%
X23510000Y-13950000D03*
X22490000Y-13950000D03*
%TD*%
D11*
%TO.C,R3*%
X23100000Y-12960000D03*
X23100000Y-11940000D03*
%TD*%
D20*
%TO.C,U1*%
X12137500Y-13050000D03*
X12137500Y-13700000D03*
X12137500Y-14350000D03*
X12137500Y-15000000D03*
X12137500Y-15650000D03*
X12137500Y-16300000D03*
X12137500Y-16950000D03*
X17862500Y-16950000D03*
X17862500Y-16300000D03*
X17862500Y-15650000D03*
X17862500Y-15000000D03*
X17862500Y-14350000D03*
X17862500Y-13700000D03*
X17862500Y-13050000D03*
%TD*%
D14*
%TO.C,C7*%
X21480000Y-16050000D03*
X20520000Y-16050000D03*
%TD*%
D21*
%TO.C,C1*%
X24350000Y-8620000D03*
X24350000Y-9580000D03*
%TD*%
D17*
%TO.C,C12*%
X10550000Y-13880000D03*
X10550000Y-12920000D03*
%TD*%
D14*
%TO.C,C4*%
X22080000Y-12900000D03*
X21120000Y-12900000D03*
%TD*%
D21*
%TO.C,C2*%
X23300000Y-8620000D03*
X23300000Y-9580000D03*
%TD*%
D11*
%TO.C,R7*%
X19450000Y-17110000D03*
X19450000Y-16090000D03*
%TD*%
D22*
%TO.C,Q2*%
X24650000Y-16512500D03*
X22750000Y-16512500D03*
X23700000Y-18387500D03*
%TD*%
D23*
%TO.C,J1*%
X7250000Y-6500000D03*
X9250000Y-6500000D03*
X11250000Y-6500000D03*
X13250000Y-6500000D03*
X15250000Y-6500000D03*
X17250000Y-6500000D03*
X19250000Y-6500000D03*
X21250000Y-6500000D03*
X23250000Y-6500000D03*
%TD*%
D14*
%TO.C,C14*%
X10580000Y-15000000D03*
X9620000Y-15000000D03*
%TD*%
D16*
%TO.C,FB1*%
X14100000Y-9337500D03*
X14100000Y-11462500D03*
%TD*%
D14*
%TO.C,C6*%
X21480000Y-17100000D03*
X20520000Y-17100000D03*
%TD*%
D24*
%TO.C,R6*%
X22490000Y-15000000D03*
X23510000Y-15000000D03*
%TD*%
%TO.C,R13*%
X8490000Y-12900000D03*
X9510000Y-12900000D03*
%TD*%
D19*
%TO.C,C9*%
X7920000Y-17100000D03*
X8880000Y-17100000D03*
%TD*%
D14*
%TO.C,C5*%
X21480000Y-13950000D03*
X20520000Y-13950000D03*
%TD*%
D22*
%TO.C,Q3*%
X11400000Y-9462500D03*
X9500000Y-9462500D03*
X10450000Y-11337500D03*
%TD*%
D11*
%TO.C,R14*%
X12700000Y-9210000D03*
X12700000Y-8190000D03*
%TD*%
D21*
%TO.C,C15*%
X8200000Y-10270000D03*
X8200000Y-11230000D03*
%TD*%
D12*
%TO.C,R10*%
X6900000Y-17040000D03*
X6900000Y-18060000D03*
%TD*%
D19*
%TO.C,C8*%
X20520000Y-18150000D03*
X21480000Y-18150000D03*
%TD*%
D21*
%TO.C,C16*%
X17300000Y-10770000D03*
X17300000Y-11730000D03*
%TD*%
D11*
%TO.C,R12*%
X7500000Y-16110000D03*
X7500000Y-15090000D03*
%TD*%
D12*
%TO.C,R15*%
X8200000Y-8240000D03*
X8200000Y-9260000D03*
%TD*%
M02*
